<svg width="36" height="31" viewBox="0 0 36 31" fill="none" xmlns="http://www.w3.org/2000/svg">
<path d="M8.02667 25.1063C8.02923 25.1229 8.03065 25.1399 8.03351 25.1571C8.08584 25.4711 8.19135 25.8976 8.40753 26.33C8.62469 26.7643 8.95834 27.2138 9.46808 27.5536C9.87531 27.8251 10.3764 28.0117 10.9847 28.078C10.8622 28.1359 10.7019 28.1941 10.5032 28.2489C9.66032 28.4814 8.33689 28.6063 6.9798 28.6063C5.62269 28.6063 4.29928 28.4814 3.45636 28.2489C3.25731 28.194 3.09656 28.136 2.97394 28.078C3.58265 28.0118 4.08408 27.8252 4.49152 27.5536C5.00124 27.2138 5.33491 26.7643 5.55206 26.33C5.76824 25.8976 5.87375 25.4711 5.92609 25.1571C5.92895 25.1399 5.93036 25.1229 5.93292 25.1063H8.02667ZM22.0267 25.1063C22.0292 25.1229 22.0306 25.1399 22.0335 25.1571C22.0858 25.4711 22.1914 25.8976 22.4075 26.33C22.6247 26.7643 22.9583 27.2138 23.4681 27.5536C23.8753 27.8251 24.3764 28.0117 24.9847 28.078C24.8622 28.1359 24.7019 28.1941 24.5032 28.2489C23.6603 28.4814 22.3369 28.6063 20.9798 28.6063C19.6227 28.6063 18.2993 28.4814 17.4564 28.2489C17.2573 28.194 17.0966 28.136 16.9739 28.078C17.5827 28.0118 18.0841 27.8252 18.4915 27.5536C19.0012 27.2138 19.3349 26.7643 19.5521 26.33C19.7682 25.8976 19.8738 25.4711 19.9261 25.1571C19.9289 25.1399 19.9304 25.1229 19.9329 25.1063H22.0267Z" fill="#99AAB5" stroke="black"/>
<path d="M32.6006 24.2762C33.5588 24.9177 34.1078 25.5694 34.3643 26.1639C34.6455 26.8161 34.5942 27.4362 34.291 27.9921C33.6626 29.1442 31.8805 30.1063 29.4795 30.1063H1.47949C1.42919 30.1062 1.28808 30.061 1.08887 29.8192C0.903726 29.5945 0.735703 29.2773 0.625977 28.9481C0.513562 28.6108 0.482163 28.3232 0.508789 28.1532C0.511849 28.1337 0.517245 28.1184 0.520508 28.1063H28.4795C29.3186 28.1063 29.9818 27.895 30.5107 27.536C31.0335 27.1813 31.3923 26.705 31.6641 26.2294C31.9306 25.7629 32.1343 25.255 32.3115 24.8563C32.4149 24.6237 32.509 24.4317 32.6006 24.2762Z" fill="#99AAB5" stroke="black"/>
<path d="M8.97485 0.501953C10.5782 0.519185 12.1664 0.667932 13.3401 0.929688C13.931 1.06149 14.3858 1.21547 14.6809 1.37695C14.9814 1.54143 14.9818 1.63555 14.9797 1.61523L14.9641 2.01953C14.8981 3.15893 14.6591 5.47378 15.0491 7.81348C15.4889 10.4524 16.7379 13.2847 19.9534 14.9072L20.2698 15.0605C21.8818 15.8046 23.6414 16.3001 25.3489 16.7188C27.075 17.142 28.7191 17.4804 30.1868 17.9199C31.6521 18.3587 32.8545 18.8753 33.6877 19.6074C34.3926 20.2267 34.8506 21.0151 34.9563 22.1064H0.983643C1.01887 17.8849 1.4936 14.5544 1.97388 11.4326C2.47249 8.19163 2.97973 5.15184 2.97974 1.60645C2.97974 1.59276 2.98583 1.47919 3.28931 1.30273C3.57853 1.13466 4.02762 0.979649 4.61646 0.852539C5.78545 0.600201 7.37041 0.484736 8.97485 0.501953Z" fill="#E6E7E8" stroke="black"/>
<path d="M10.4797 22.1063C13.4501 22.1063 13.6099 22.3464 16.1799 22.6034C18.6651 22.8519 23.3218 23.0963 34.8928 23.1044C34.6871 23.6874 34.1328 24.1063 33.4797 24.1063H33.4631L33.4465 24.1073H33.4436C33.4419 24.1074 33.439 24.1081 33.4358 24.1083L33.2795 24.118C33.1694 24.1248 33.0061 24.1347 32.7971 24.1464C32.3792 24.1697 31.7757 24.2002 31.0364 24.2313C29.5568 24.2936 27.533 24.3563 25.3547 24.3563C23.1749 24.3563 20.847 24.294 18.7581 24.1083C16.7877 23.9331 15.0712 23.6511 13.8938 23.2284L13.6653 23.1425C13.3267 23.007 13.044 22.9142 12.8059 22.8622C12.572 22.8111 12.3482 22.7919 12.1418 22.8339C11.9152 22.88 11.7379 22.9941 11.6106 23.1542C11.4992 23.2944 11.441 23.4521 11.4065 23.5507C11.3227 23.79 11.302 23.8671 11.2258 23.9384C11.168 23.9924 10.9979 24.1063 10.4797 24.1063H2.47974C1.65188 24.1063 0.979736 23.4342 0.979736 22.6063V22.1063H10.4797Z" fill="#E6E7E8" stroke="black"/>
<path d="M23.7587 15.6515V15.6525C23.9988 15.6873 24.1743 15.8854 24.1884 16.1173L24.1835 16.2189L23.9745 17.6759C23.9384 17.9265 23.7242 18.1066 23.4803 18.1066L23.41 18.1017H23.4091C23.1344 18.0619 22.9455 17.8083 22.9843 17.5353L22.9833 17.5343L23.1923 16.0782C23.2312 15.8085 23.4829 15.6162 23.7587 15.6515ZM20.6102 14.1241L20.7059 14.1603C20.9205 14.2686 21.0236 14.5113 20.9637 14.7355L20.9276 14.8312L19.9276 16.8292C19.8398 17.0039 19.6638 17.1066 19.4784 17.1066C19.4042 17.1065 19.3279 17.0895 19.2557 17.0538H19.2567C19.0408 16.9459 18.9367 16.7025 18.9969 16.4777L19.0331 16.3829L20.0331 14.3839C20.1413 14.1683 20.3842 14.064 20.6102 14.1241ZM17.12 12.2609C17.2888 12.0868 17.5522 12.0609 17.7479 12.1847L17.828 12.2472C18.0013 12.414 18.0282 12.6772 17.9032 12.8741L17.8397 12.9542L16.1532 14.7032C16.0546 14.8048 15.9233 14.8565 15.7919 14.8566C15.6975 14.8566 15.6041 14.83 15.5223 14.7775L15.4452 14.7159H15.4442C15.2707 14.5488 15.2442 14.2851 15.369 14.089L15.4325 14.0099L17.12 12.2609Z" fill="#DD2E44" stroke="black"/>
</svg>
