<svg width="32" height="36" viewBox="0 0 32 36" fill="none" xmlns="http://www.w3.org/2000/svg">
<path d="M16.0098 4.5C18.9414 4.5 22.8267 5.23514 25.9648 7.52832C29.077 9.80259 31.5098 13.6481 31.5098 20C31.5098 26.5247 31.5078 30.4714 31.1406 32.7969C30.9567 33.9619 30.6932 34.6257 30.3672 35C30.071 35.34 29.6695 35.5 29.0098 35.5C28.337 35.5 27.5823 35.3311 26.707 35.0547C25.8261 34.7765 24.8851 34.4107 23.8018 34.0283C21.659 33.2721 19.0949 32.5 16.0098 32.5C12.9245 32.5 10.382 33.2721 8.25 34.0283C7.1725 34.4105 6.23245 34.7768 5.34863 35.0547C4.47094 35.3306 3.70496 35.5 3.00977 35.5C2.76165 35.4999 2.52666 35.3948 2.28809 35.1367C2.04032 34.8685 1.80726 34.4527 1.59961 33.8896C1.18465 32.7645 0.918903 31.1917 0.753906 29.4531C0.424668 25.9835 0.509766 22.0167 0.509766 20C0.509766 13.6481 2.94252 9.80259 6.05469 7.52832C9.19284 5.23505 13.0781 4.50003 16.0098 4.5Z" fill="#292F33" stroke="black"/>
<path d="M16.0099 4.62399C22.2509 4.62399 27.5099 11.1881 27.5099 19.5625C27.5097 27.9366 22.2508 34.5 16.0099 34.5C9.76911 34.5 4.51015 27.9366 4.50995 19.5625C4.50995 11.1881 9.76899 4.62399 16.0099 4.62399Z" fill="#F7DECE" stroke="black"/>
<path d="M16.01 31C13.663 31 12.435 29.84 12.303 29.707C11.912 29.316 11.912 28.684 12.303 28.293C12.69 27.905 13.316 27.903 13.707 28.283C13.758 28.33 14.513 29 16.01 29C17.529 29 18.283 28.31 18.315 28.281C18.714 27.907 19.342 27.918 19.723 28.31C20.102 28.703 20.103 29.321 19.717 29.707C19.585 29.84 18.357 31 16.01 31Z" fill="#DF1F32"/>
<path d="M17.0099 26H15.0099C14.4579 26 14.0099 25.553 14.0099 25C14.0099 24.447 14.4579 24 15.0099 24H17.0099C17.5629 24 18.0099 24.447 18.0099 25C18.0099 25.553 17.5629 26 17.0099 26Z" fill="#C1694F"/>
<path d="M31.5024 24.5H31.4916C31.4957 24.437 31.4995 24.3729 31.5024 24.3076C31.5021 24.3721 31.5027 24.4362 31.5024 24.5ZM16.0102 2.5C21.7935 2.50013 31.5102 7.33217 31.5102 20C31.5102 21.3255 31.5066 22.5428 31.5034 23.665C31.4892 23.1795 31.4448 22.7877 31.3657 22.4766C31.2707 22.1034 31.1115 21.7794 30.8344 21.5791C30.5399 21.3664 30.2147 21.3646 29.9575 21.4189C29.7123 21.4707 29.4735 21.5843 29.2866 21.6777C29.0763 21.7828 28.9248 21.8657 28.7778 21.9229C28.7105 21.949 28.6658 21.9588 28.6391 21.9639C28.6319 21.9498 28.6199 21.9314 28.6098 21.9033C28.5568 21.7557 28.5102 21.4801 28.5102 21C28.5102 18.8061 27.4027 17.1608 25.7875 16.084C24.1872 15.0171 22.0843 14.5 20.0102 14.5C18.1146 14.5 15.9403 13.7831 14.2065 13.04C13.347 12.6717 12.6094 12.3037 12.0873 12.0273C11.8265 11.8892 11.6197 11.7742 11.4789 11.6943C11.4088 11.6545 11.3556 11.6225 11.3198 11.6016C11.302 11.5912 11.2885 11.5833 11.2797 11.5781C11.2754 11.5755 11.272 11.5735 11.27 11.5723L11.268 11.5713H11.267L10.9321 11.3701L10.6567 11.6465L7.65668 14.6465C7.17827 15.1249 6.69772 15.5111 6.22699 15.8906C5.76348 16.2643 5.2974 16.6404 4.89398 17.0732C4.05274 17.9759 3.51019 19.0999 3.51019 21C3.51019 21.4232 3.46391 21.6481 3.41937 21.7559C3.41607 21.7638 3.41127 21.7697 3.40863 21.7754C3.3775 21.7709 3.32156 21.7593 3.23187 21.7266C3.07108 21.6679 2.9284 21.5957 2.70648 21.501C2.51357 21.4186 2.26766 21.3236 2.01312 21.2959C1.7412 21.2663 1.42883 21.3114 1.15668 21.541C0.902044 21.7559 0.748089 22.0787 0.653748 22.4619C0.558208 22.8502 0.510193 23.3552 0.510193 24C0.510193 24.1734 0.51767 24.3401 0.528748 24.5H0.516052C0.489079 22.689 0.510193 21.0721 0.510193 20C0.510193 7.332 10.227 2.5 16.0102 2.5Z" fill="#292F33" stroke="black"/>
<path d="M6.00995 6H26.0099V5L23.0099 4L21.0099 1L18.0099 2L16.0099 0L14.0099 2L11.0099 1L9.00995 4L6.00995 5V6Z" fill="#A7A9AC"/>
<path d="M16.0099 5C16.5622 5 17.0099 4.32843 17.0099 3.5C17.0099 2.67157 16.5622 2 16.0099 2C15.4577 2 15.0099 2.67157 15.0099 3.5C15.0099 4.32843 15.4577 5 16.0099 5Z" fill="#F1F2F2"/>
<path d="M12.0099 5C12.5622 5 13.0099 4.55228 13.0099 4C13.0099 3.44772 12.5622 3 12.0099 3C11.4577 3 11.0099 3.44772 11.0099 4C11.0099 4.55228 11.4577 5 12.0099 5Z" fill="#F1F2F2"/>
<path d="M20.0099 5C20.5622 5 21.0099 4.55228 21.0099 4C21.0099 3.44772 20.5622 3 20.0099 3C19.4577 3 19.0099 3.44772 19.0099 4C19.0099 4.55228 19.4577 5 20.0099 5Z" fill="#F1F2F2"/>
<path d="M11.0099 23C10.4579 23 10.0099 22.553 10.0099 22V20C10.0099 19.447 10.4579 19 11.0099 19C11.5619 19 12.0099 19.447 12.0099 20V22C12.0099 22.553 11.5619 23 11.0099 23ZM21.0099 23C20.4569 23 20.0099 22.553 20.0099 22V20C20.0099 19.447 20.4569 19 21.0099 19C21.5629 19 22.0099 19.447 22.0099 20V22C22.0099 22.553 21.5629 23 21.0099 23Z" fill="#662113"/>
</svg>
