<svg width="28" height="36" viewBox="0 0 28 36" fill="none" xmlns="http://www.w3.org/2000/svg">
<path d="M15.0604 2.41737C16.0319 2.03808 17.1214 2.47019 17.5858 3.38319L17.6708 3.57265L17.6717 3.5746L23.6805 18.851L19.4598 20.2406L17.871 13.9027L17.8602 13.8607L17.8417 13.8207L13.9012 5.01894C13.5305 4.04693 13.9616 2.96395 14.87 2.50233L15.0594 2.41835L15.0604 2.41737Z" fill="#EF9645" stroke="black"/>
<path d="M16.5225 0.71582C17.5173 0.21478 18.7328 0.614619 19.2344 1.60938L19.2383 1.61816L19.2432 1.62598L25.0117 12.082C25.0132 12.0859 25.0149 12.0901 25.0166 12.0947C25.0275 12.1236 25.0437 12.1669 25.0645 12.2227C25.1059 12.3342 25.1657 12.4969 25.2393 12.7002C25.3864 13.1071 25.5883 13.6761 25.8047 14.3252C26.1852 15.4668 26.6059 16.8379 26.8643 18.0039L26.9648 18.4893C27.1121 19.2688 27.0151 20.5594 26.7236 21.9814C26.4713 23.2126 26.0847 24.4876 25.6328 25.5283L25.4346 25.96C23.429 30.0958 21.751 32.2399 20.0586 33.4385C18.5848 34.4822 17.0586 34.8419 15.1533 35.123L14.3125 35.2402C10.5511 35.7458 7.63819 35.0155 5.27637 33.1484L5.0498 32.9648C1.36827 29.8923 0.656428 25.5339 0.52832 24.3379L0.501953 24.0322C0.453587 22.9859 1.21077 22.0874 2.2168 21.9424L2.4209 21.9229H2.42383C3.46865 21.874 4.365 22.6273 4.51562 23.6396L4.53516 23.8447V23.8467C4.53741 23.8916 4.6399 25.5074 5.32812 27.2969L5.47363 27.6562C5.61918 27.998 5.88061 28.2676 6.19141 28.4365L6.32812 28.5029L11.5977 30.7744L11.6484 30.7969L11.7021 30.8066C11.9778 30.8591 12.2614 30.8197 12.5107 30.6982L12.5361 30.6846L15.21 29.1846L15.209 29.1836C15.4224 29.0735 15.6003 28.9086 15.7236 28.7041L15.7285 28.6963L15.7324 28.6895L18.6475 23.4609L18.6465 23.46C18.9146 22.9993 18.8741 22.4226 18.542 22.0049L18.5322 21.9912L18.5195 21.9785C18.5188 21.9778 18.5179 21.976 18.5166 21.9746C18.5139 21.9717 18.5099 21.9674 18.5049 21.9619C18.4945 21.9505 18.4789 21.9339 18.459 21.9121C18.419 21.8684 18.3609 21.804 18.2861 21.7227C18.1364 21.5597 17.9215 21.327 17.6611 21.0479C17.1407 20.4898 16.4361 19.7449 15.7031 18.998C14.9716 18.2527 14.2054 17.499 13.5615 16.9277C13.2406 16.643 12.9405 16.3952 12.6855 16.2148C12.5586 16.125 12.4331 16.0446 12.3145 15.9844C12.2349 15.944 12.1283 15.8965 12.0088 15.873L11.8857 15.8594C11.5957 15.8501 11.257 15.9195 10.9277 16.0137C10.5888 16.1106 10.2183 16.2459 9.85059 16.3955C9.29864 16.6201 8.73506 16.8836 8.2666 17.1152L7.83301 17.334C7.76834 17.3673 7.72291 17.4084 7.70801 17.4219C7.68574 17.442 7.66531 17.4625 7.64941 17.4795C7.61736 17.5138 7.58282 17.5542 7.54883 17.5957C7.4797 17.6801 7.39373 17.7918 7.2998 17.917C7.11113 18.1685 6.87613 18.4945 6.64648 18.8164C6.41626 19.1391 6.18925 19.461 6.01758 19.7051C5.9315 19.8275 5.85964 19.9301 5.80762 20.0039C5.76633 20.0625 5.74549 20.0905 5.73926 20.0996C5.06517 20.8973 3.90783 21.0464 3.06348 20.4736L2.89844 20.3496V20.3486C2.04379 19.6339 1.93072 18.3621 2.64648 17.5068L2.65527 17.4961L2.66309 17.4854L4.97559 14.3994L4.97656 14.3984C5.03366 14.3218 5.10539 14.2625 5.19336 14.2188L5.19238 14.2178L11.043 11.6611L11.0547 11.6553C11.5016 11.4457 11.7703 11.3878 11.9766 11.3975C12.1765 11.4069 12.3845 11.4825 12.71 11.6855L12.7197 11.6914L12.7285 11.6973C12.729 11.6975 12.7302 11.6975 12.7314 11.6982C12.734 11.6997 12.7381 11.7026 12.7441 11.7061C12.7565 11.7132 12.7765 11.7245 12.8027 11.7402C12.8553 11.7718 12.9355 11.8208 13.042 11.8887C13.2552 12.0246 13.5743 12.2364 13.9902 12.5342C14.7183 13.0555 15.7431 13.8415 17.0166 14.9502L17.5771 15.4453C18.9868 16.7058 20.5126 18.066 21.5869 19.0576L22.8301 20.2051L22.4102 18.5664V18.5654C22.41 18.5648 22.4095 18.5637 22.4092 18.5625C22.4085 18.5599 22.4075 18.5558 22.4062 18.5508C22.4036 18.5404 22.3996 18.5248 22.3945 18.5049C22.3843 18.4649 22.3687 18.4065 22.3496 18.332C22.3113 18.1825 22.2571 17.9684 22.1914 17.7119C22.0599 17.1988 21.8838 16.5142 21.708 15.8291C21.5322 15.1443 21.3568 14.4584 21.2236 13.9424C21.1571 13.6844 21.1012 13.4677 21.0615 13.3154C21.0418 13.2396 21.0249 13.1791 21.0137 13.1367C21.0081 13.1159 21.0036 13.0982 21 13.085C20.9983 13.0787 20.9962 13.0705 20.9941 13.0635C20.9932 13.0603 20.9916 13.054 20.9893 13.0469C20.9882 13.0436 20.9857 13.0363 20.9824 13.0273C20.9806 13.0226 20.9755 13.0106 20.9727 13.0039L20.9434 12.9453L15.626 3.42188C15.1592 2.49016 15.4823 1.36782 16.3428 0.818359L16.5225 0.71582Z" fill="#FFDC5D" stroke="black"/>
</svg>
